<?xml version="1.0" encoding="UTF-8"?>
<svg xmlns="http://www.w3.org/2000/svg" xmlns:xlink="http://www.w3.org/1999/xlink" width="66px" height="px" viewBox="0 0 64 28" version="1.1">
<g id="surface1">
<path style=" stroke:none;fill-rule:nonzero;fill:rgb(72.549021%,0%,11.764706%);fill-opacity:1;" d="M 14.386719 0.0625 C 14.851562 0.3125 15.1875 0.695312 15.390625 1.183594 C 15.484375 1.539062 15.496094 1.871094 15.492188 2.234375 C 15.492188 2.308594 15.492188 2.378906 15.492188 2.453125 C 15.492188 2.699219 15.492188 2.941406 15.492188 3.183594 C 15.492188 3.359375 15.492188 3.535156 15.492188 3.710938 C 15.492188 4.183594 15.492188 4.65625 15.488281 5.132812 C 15.488281 5.625 15.488281 6.121094 15.488281 6.617188 C 15.488281 7.554688 15.484375 8.492188 15.484375 9.433594 C 15.480469 10.5 15.480469 11.566406 15.480469 12.636719 C 15.476562 14.832031 15.472656 17.03125 15.46875 19.226562 C 15.222656 19.101562 15.203125 18.96875 15.089844 18.714844 C 14.421875 17.332031 13.140625 16.734375 11.875 16.007812 C 11.644531 15.875 11.414062 15.742188 11.183594 15.609375 C 11.097656 15.558594 11.097656 15.558594 11.011719 15.507812 C 10.4375 15.179688 9.871094 14.847656 9.300781 14.511719 C 8.476562 14.03125 7.652344 13.550781 6.824219 13.074219 C 6.746094 13.027344 6.746094 13.027344 6.664062 12.980469 C 6.121094 12.664062 5.574219 12.347656 5.03125 12.035156 C 3.59375 11.203125 2.160156 10.371094 0.738281 9.519531 C 0.65625 9.472656 0.574219 9.425781 0.488281 9.375 C 0.210938 9.199219 0.125 9.082031 0 8.773438 C -0.0859375 8.140625 -0.015625 7.796875 0.367188 7.28125 C 0.605469 7.101562 0.605469 7.101562 0.878906 6.949219 C 0.980469 6.894531 1.082031 6.835938 1.1875 6.777344 C 1.296875 6.714844 1.410156 6.652344 1.519531 6.589844 C 1.636719 6.527344 1.75 6.460938 1.867188 6.394531 C 2.105469 6.257812 2.347656 6.125 2.589844 5.988281 C 3.089844 5.707031 3.589844 5.417969 4.085938 5.128906 C 4.25 5.035156 4.410156 4.941406 4.570312 4.847656 C 5.386719 4.375 6.203125 3.898438 7.019531 3.421875 C 7.804688 2.960938 8.59375 2.503906 9.382812 2.046875 C 9.96875 1.707031 10.558594 1.367188 11.140625 1.019531 C 11.242188 0.957031 11.347656 0.898438 11.449219 0.835938 C 11.644531 0.71875 11.835938 0.605469 12.027344 0.488281 C 12.113281 0.4375 12.199219 0.386719 12.289062 0.335938 C 12.363281 0.292969 12.4375 0.246094 12.515625 0.199219 C 13.058594 -0.101562 13.800781 -0.117188 14.386719 0.0625 Z M 14.386719 0.0625 "/>
<path style=" stroke:none;fill-rule:nonzero;fill:rgb(19.607843%,19.607843%,19.607843%);fill-opacity:1;" d="M 41.613281 5.515625 C 42.550781 6.378906 43.019531 7.441406 43.113281 8.722656 C 43.117188 8.960938 43.121094 9.199219 43.117188 9.4375 C 43.117188 9.527344 43.117188 9.617188 43.117188 9.710938 C 43.117188 10 43.117188 10.292969 43.113281 10.585938 C 43.113281 10.789062 43.113281 10.992188 43.113281 11.195312 C 43.113281 11.730469 43.109375 12.265625 43.109375 12.796875 C 43.105469 13.34375 43.105469 13.886719 43.105469 14.433594 C 43.101562 15.503906 43.101562 16.570312 43.097656 17.640625 C 40.410156 18.167969 40.410156 18.167969 39.332031 18.230469 C 39.238281 18.234375 39.144531 18.242188 39.050781 18.25 C 37.042969 18.386719 34.710938 18.40625 33.058594 17.078125 C 32.257812 16.367188 31.910156 15.375 31.839844 14.316406 C 31.820312 13.191406 31.9375 12.175781 32.695312 11.292969 C 33.914062 10.039062 35.5625 9.707031 37.246094 9.679688 C 38.011719 9.675781 38.761719 9.691406 39.503906 9.894531 C 39.410156 9.105469 39.332031 8.535156 38.703125 8.003906 C 37.199219 7.195312 35.09375 7.75 33.519531 8.121094 C 33.453125 7.726562 33.382812 7.335938 33.316406 6.945312 C 33.296875 6.8125 33.273438 6.675781 33.25 6.542969 C 33.214844 6.351562 33.183594 6.160156 33.152344 5.96875 C 33.121094 5.796875 33.121094 5.796875 33.089844 5.621094 C 33.0625 5.355469 33.0625 5.195312 33.152344 4.945312 C 35.738281 4.316406 39.382812 3.628906 41.613281 5.515625 Z M 35.855469 12.9375 C 35.597656 13.390625 35.59375 13.761719 35.636719 14.28125 C 35.804688 14.710938 36.070312 14.898438 36.464844 15.121094 C 36.984375 15.277344 37.445312 15.332031 37.984375 15.324219 C 38.050781 15.324219 38.117188 15.324219 38.183594 15.324219 C 38.636719 15.320312 39.046875 15.269531 39.503906 15.214844 C 39.503906 14.289062 39.503906 13.367188 39.503906 12.414062 C 38.351562 12.21875 36.753906 12.027344 35.855469 12.9375 Z M 35.855469 12.9375 "/>
<path style=" stroke:none;fill-rule:nonzero;fill:rgb(19.607843%,19.607843%,19.607843%);fill-opacity:1;" d="M 52.765625 4.386719 C 54.011719 4.386719 55.257812 4.386719 56.539062 4.386719 C 56.542969 4.980469 56.546875 5.574219 56.550781 6.183594 C 56.554688 6.5625 56.558594 6.941406 56.558594 7.316406 C 56.566406 7.917969 56.570312 8.515625 56.574219 9.113281 C 56.574219 9.597656 56.578125 10.078125 56.582031 10.5625 C 56.585938 10.746094 56.585938 10.929688 56.585938 11.113281 C 56.558594 13.015625 56.558594 13.015625 57.433594 14.628906 C 58.339844 15.128906 59.324219 14.890625 60.316406 14.839844 C 60.316406 11.390625 60.316406 7.941406 60.316406 4.386719 C 61.53125 4.386719 62.746094 4.386719 64 4.386719 C 64 8.730469 64 13.074219 64 17.546875 C 61.1875 18.21875 57.640625 18.996094 54.953125 17.476562 C 53.789062 16.714844 53.207031 15.621094 52.90625 14.273438 C 52.792969 13.625 52.753906 13.007812 52.753906 12.355469 C 52.753906 12.269531 52.753906 12.179688 52.753906 12.09375 C 52.753906 11.808594 52.753906 11.523438 52.757812 11.242188 C 52.757812 11.042969 52.757812 10.84375 52.757812 10.648438 C 52.757812 10.128906 52.757812 9.609375 52.757812 9.09375 C 52.761719 8.5625 52.761719 8.03125 52.761719 7.503906 C 52.761719 6.464844 52.761719 5.425781 52.765625 4.386719 Z M 52.765625 4.386719 "/>
<path style=" stroke:none;fill-rule:nonzero;fill:rgb(37.254903%,37.254903%,38.039216%);fill-opacity:1;" d="M 3.132812 12.785156 C 3.492188 12.90625 3.804688 13.027344 4.128906 13.226562 C 4.257812 13.300781 4.257812 13.300781 4.386719 13.378906 C 4.523438 13.460938 4.523438 13.460938 4.660156 13.546875 C 4.859375 13.664062 5.058594 13.785156 5.257812 13.902344 C 5.363281 13.964844 5.46875 14.027344 5.574219 14.089844 C 6.101562 14.402344 6.628906 14.710938 7.160156 15.015625 C 7.269531 15.078125 7.375 15.140625 7.484375 15.203125 C 7.980469 15.488281 8.476562 15.777344 8.976562 16.0625 C 10.023438 16.667969 11.066406 17.269531 12.105469 17.890625 C 12.175781 17.933594 12.25 17.976562 12.328125 18.023438 C 13.074219 18.472656 13.757812 19.097656 13.996094 19.972656 C 14.15625 20.820312 14.125 21.628906 13.722656 22.398438 C 13.191406 23.121094 12.605469 23.554688 11.828125 23.964844 C 11.621094 24.074219 11.414062 24.1875 11.210938 24.300781 C 11.105469 24.355469 11.003906 24.414062 10.894531 24.472656 C 10.425781 24.730469 9.964844 25.003906 9.503906 25.28125 C 8.566406 25.835938 7.628906 26.382812 6.6875 26.925781 C 6.585938 26.984375 6.484375 27.042969 6.378906 27.105469 C 6.230469 27.1875 6.230469 27.1875 6.082031 27.273438 C 5.816406 27.429688 5.558594 27.59375 5.300781 27.761719 C 4.808594 28.058594 4.429688 28.089844 3.867188 28 C 3.46875 27.839844 3.320312 27.636719 3.132812 27.253906 C 3.097656 26.96875 3.097656 26.96875 3.097656 26.648438 C 3.097656 26.464844 3.097656 26.464844 3.097656 26.277344 C 3.097656 26.140625 3.097656 26.007812 3.097656 25.871094 C 3.101562 25.730469 3.097656 25.585938 3.097656 25.445312 C 3.097656 25.058594 3.101562 24.671875 3.101562 24.285156 C 3.105469 23.878906 3.105469 23.476562 3.105469 23.070312 C 3.105469 22.308594 3.109375 21.542969 3.109375 20.777344 C 3.113281 19.90625 3.117188 19.035156 3.117188 18.164062 C 3.121094 16.371094 3.125 14.578125 3.132812 12.785156 Z M 3.132812 12.785156 "/>
<path style=" stroke:none;fill-rule:nonzero;fill:rgb(19.607843%,19.607843%,19.607843%);fill-opacity:1;" d="M 30.757812 4.945312 C 30.65625 5.625 30.527344 6.296875 30.382812 6.964844 C 30.367188 7.039062 30.351562 7.113281 30.335938 7.191406 C 30.214844 7.722656 30.214844 7.722656 30.113281 7.933594 C 29.691406 7.882812 29.292969 7.800781 28.878906 7.699219 C 27.875 7.460938 26.785156 7.296875 25.785156 7.652344 C 25.539062 7.792969 25.539062 7.792969 25.414062 8.027344 C 25.355469 8.351562 25.355469 8.351562 25.414062 8.679688 C 25.976562 9.355469 26.914062 9.625 27.699219 9.949219 C 30.414062 11.0625 30.414062 11.0625 31.066406 12.476562 C 31.460938 13.425781 31.480469 14.796875 31.128906 15.757812 C 30.632812 16.808594 29.90625 17.402344 28.839844 17.820312 C 27.988281 18.109375 27.140625 18.253906 26.246094 18.292969 C 26.171875 18.296875 26.09375 18.300781 26.019531 18.304688 C 24.433594 18.34375 22.851562 18.105469 21.363281 17.546875 C 21.332031 17.515625 21.304688 17.484375 21.273438 17.453125 C 21.285156 16.753906 21.449219 16.066406 21.601562 15.386719 C 21.621094 15.289062 21.644531 15.191406 21.664062 15.089844 C 21.71875 14.851562 21.769531 14.613281 21.824219 14.375 C 22.386719 14.453125 22.925781 14.609375 23.476562 14.765625 C 24.234375 14.972656 24.953125 15.046875 25.738281 15.050781 C 25.820312 15.050781 25.90625 15.054688 25.992188 15.054688 C 26.519531 15.058594 26.882812 14.996094 27.351562 14.746094 C 27.523438 14.570312 27.453125 14.328125 27.453125 14.09375 C 27.449219 13.886719 27.449219 13.886719 27.351562 13.625 C 27.144531 13.527344 27.144531 13.527344 26.890625 13.441406 C 26.679688 13.339844 26.472656 13.242188 26.269531 13.140625 C 25.75 12.894531 25.226562 12.667969 24.695312 12.453125 C 24.101562 12.210938 23.546875 11.945312 23.023438 11.574219 C 22.960938 11.53125 22.902344 11.488281 22.84375 11.445312 C 21.980469 10.769531 21.699219 9.832031 21.546875 8.773438 C 21.441406 7.765625 21.707031 6.792969 22.285156 5.972656 C 24.316406 3.609375 28.121094 4.0625 30.757812 4.945312 Z M 30.757812 4.945312 "/>
<path style=" stroke:none;fill-rule:nonzero;fill:rgb(19.607843%,19.607843%,19.607843%);fill-opacity:1;" d="M 47.515625 0.839844 C 47.515625 2.011719 47.515625 3.179688 47.515625 4.386719 C 48.976562 4.386719 50.433594 4.386719 51.9375 4.386719 C 51.9375 5.433594 51.9375 6.480469 51.9375 7.558594 C 50.476562 7.558594 49.019531 7.558594 47.515625 7.558594 C 47.523438 8.238281 47.53125 8.914062 47.542969 9.589844 C 47.546875 9.90625 47.550781 10.222656 47.554688 10.535156 C 47.558594 10.898438 47.566406 11.261719 47.570312 11.625 C 47.570312 11.738281 47.574219 11.847656 47.574219 11.964844 C 47.589844 12.84375 47.621094 13.820312 48.160156 14.558594 C 49 15.109375 49.988281 14.996094 50.921875 14.800781 C 51.261719 14.726562 51.601562 14.648438 51.9375 14.558594 C 52.097656 15.226562 52.242188 15.898438 52.375 16.574219 C 52.386719 16.636719 52.398438 16.699219 52.414062 16.765625 C 52.535156 17.40625 52.535156 17.40625 52.398438 17.640625 C 52.175781 17.746094 51.980469 17.816406 51.746094 17.886719 C 51.679688 17.90625 51.617188 17.925781 51.546875 17.945312 C 49.75 18.460938 47.605469 18.539062 45.925781 17.617188 C 44.90625 16.992188 44.308594 16.179688 44.003906 15.003906 C 43.671875 13.515625 43.714844 11.984375 43.722656 10.464844 C 43.722656 10.144531 43.722656 9.828125 43.722656 9.507812 C 43.722656 8.902344 43.726562 8.300781 43.726562 7.699219 C 43.730469 7.011719 43.730469 6.324219 43.730469 5.636719 C 43.734375 4.222656 43.738281 2.8125 43.742188 1.398438 C 44.21875 1.320312 44.699219 1.238281 45.175781 1.160156 C 45.339844 1.132812 45.503906 1.105469 45.664062 1.078125 C 45.898438 1.039062 46.132812 1 46.367188 0.960938 C 46.441406 0.949219 46.511719 0.9375 46.585938 0.925781 C 46.902344 0.875 47.195312 0.839844 47.515625 0.839844 Z M 47.515625 0.839844 "/>
<path style=" stroke:none;fill-rule:nonzero;fill:rgb(19.607843%,19.607843%,19.607843%);fill-opacity:1;" d="M 31.511719 20.789062 C 31.601562 20.789062 31.695312 20.789062 31.789062 20.789062 C 32.046875 20.8125 32.191406 20.878906 32.414062 21 C 32.675781 20.96875 32.898438 20.898438 33.152344 20.8125 C 33.671875 20.761719 34.089844 20.78125 34.53125 21.09375 C 34.816406 21.472656 34.839844 21.75 34.835938 22.21875 C 34.835938 22.28125 34.835938 22.339844 34.835938 22.40625 C 34.832031 22.597656 34.828125 22.792969 34.824219 22.988281 C 34.824219 23.121094 34.824219 23.253906 34.820312 23.386719 C 34.820312 23.710938 34.8125 24.035156 34.808594 24.359375 C 34.597656 24.359375 34.382812 24.359375 34.164062 24.359375 C 34.160156 24.289062 34.160156 24.21875 34.15625 24.144531 C 34.144531 23.820312 34.136719 23.496094 34.125 23.171875 C 34.121094 23.058594 34.117188 22.945312 34.113281 22.828125 C 34.109375 22.71875 34.105469 22.613281 34.101562 22.5 C 34.097656 22.351562 34.097656 22.351562 34.089844 22.199219 C 34.078125 21.914062 34.078125 21.914062 33.980469 21.558594 C 33.613281 21.558594 33.25 21.558594 32.875 21.558594 C 32.875 22.484375 32.875 23.40625 32.875 24.359375 C 32.660156 24.359375 32.449219 24.359375 32.230469 24.359375 C 32.230469 24.292969 32.226562 24.222656 32.226562 24.152344 C 32.21875 23.84375 32.210938 23.53125 32.203125 23.222656 C 32.199219 23.113281 32.199219 23.007812 32.195312 22.898438 C 32.191406 22.742188 32.191406 22.742188 32.183594 22.582031 C 32.183594 22.488281 32.179688 22.390625 32.179688 22.292969 C 32.128906 21.960938 32.09375 21.804688 31.863281 21.558594 C 31.558594 21.527344 31.253906 21.5 30.941406 21.464844 C 30.941406 22.421875 30.941406 23.375 30.941406 24.359375 C 30.726562 24.359375 30.515625 24.359375 30.296875 24.359375 C 30.296875 23.25 30.296875 22.140625 30.296875 21 C 30.773438 20.863281 31.042969 20.789062 31.511719 20.789062 Z M 31.511719 20.789062 "/>
<path style=" stroke:none;fill-rule:nonzero;fill:rgb(19.215687%,19.215687%,19.215687%);fill-opacity:1;" d="M 39.414062 20.90625 C 39.65625 20.90625 39.898438 20.90625 40.148438 20.90625 C 40.167969 20.972656 40.1875 21.035156 40.207031 21.101562 C 40.292969 21.394531 40.378906 21.683594 40.464844 21.972656 C 40.496094 22.074219 40.527344 22.175781 40.558594 22.28125 C 40.585938 22.378906 40.613281 22.476562 40.644531 22.574219 C 40.671875 22.664062 40.699219 22.753906 40.726562 22.84375 C 40.777344 23.046875 40.777344 23.046875 40.886719 23.148438 C 41.097656 22.40625 41.3125 21.667969 41.53125 20.90625 C 41.742188 20.90625 41.957031 20.90625 42.175781 20.90625 C 42.269531 21.242188 42.359375 21.578125 42.453125 21.914062 C 42.476562 22.011719 42.503906 22.105469 42.53125 22.207031 C 42.554688 22.296875 42.582031 22.390625 42.605469 22.484375 C 42.640625 22.609375 42.640625 22.609375 42.675781 22.738281 C 42.726562 22.960938 42.726562 22.960938 42.726562 23.238281 C 42.789062 23.238281 42.851562 23.238281 42.914062 23.238281 C 42.949219 23.09375 42.949219 23.09375 42.984375 22.941406 C 43.148438 22.253906 43.320312 21.574219 43.558594 20.90625 C 43.769531 20.90625 43.980469 20.90625 44.203125 20.90625 C 44.144531 21.378906 44.046875 21.816406 43.902344 22.273438 C 43.882812 22.335938 43.863281 22.398438 43.839844 22.464844 C 43.304688 24.148438 43.304688 24.148438 43.097656 24.359375 C 42.914062 24.363281 42.726562 24.363281 42.542969 24.359375 C 42.472656 24.1875 42.402344 24.019531 42.332031 23.847656 C 42.292969 23.75 42.25 23.65625 42.210938 23.558594 C 42.070312 23.207031 41.9375 22.847656 41.808594 22.492188 C 41.59375 23.109375 41.382812 23.726562 41.164062 24.359375 C 40.949219 24.359375 40.738281 24.359375 40.519531 24.359375 C 40.183594 23.570312 39.898438 22.773438 39.65625 21.949219 C 39.617188 21.828125 39.617188 21.828125 39.582031 21.703125 C 39.414062 21.121094 39.414062 21.121094 39.414062 20.90625 Z M 39.414062 20.90625 "/>
<path style=" stroke:none;fill-rule:nonzero;fill:rgb(19.215687%,19.215687%,19.215687%);fill-opacity:1;" d="M 52.398438 19.226562 C 52.425781 20.152344 52.457031 21.074219 52.488281 22.027344 C 52.820312 21.660156 52.820312 21.660156 53.148438 21.289062 C 53.355469 21.074219 53.5 20.921875 53.796875 20.871094 C 54 20.871094 54 20.871094 54.332031 20.90625 C 54.179688 21.292969 53.90625 21.566406 53.628906 21.863281 C 53.582031 21.914062 53.535156 21.96875 53.484375 22.019531 C 53.367188 22.148438 53.25 22.273438 53.132812 22.398438 C 53.207031 22.484375 53.28125 22.570312 53.359375 22.65625 C 53.628906 22.976562 53.882812 23.308594 54.136719 23.640625 C 54.207031 23.738281 54.277344 23.835938 54.351562 23.933594 C 54.515625 24.171875 54.515625 24.171875 54.515625 24.359375 C 54.21875 24.429688 53.980469 24.445312 53.6875 24.359375 C 53.464844 24.125 53.304688 23.878906 53.136719 23.601562 C 52.921875 23.269531 52.921875 23.269531 52.398438 22.867188 C 52.398438 23.359375 52.398438 23.851562 52.398438 24.359375 C 52.152344 24.359375 51.910156 24.359375 51.660156 24.359375 C 51.660156 22.695312 51.660156 21.035156 51.660156 19.320312 C 52.214844 19.226562 52.214844 19.226562 52.398438 19.226562 Z M 52.398438 19.226562 "/>
<path style=" stroke:none;fill-rule:nonzero;fill:rgb(19.215687%,19.215687%,19.215687%);fill-opacity:1;" d="M 38.113281 20.925781 C 38.425781 21.195312 38.636719 21.445312 38.769531 21.839844 C 38.769531 22.148438 38.769531 22.457031 38.769531 22.773438 C 38.039062 22.773438 37.308594 22.773438 36.558594 22.773438 C 36.738281 23.484375 36.738281 23.484375 37.042969 23.660156 C 37.539062 23.75 38 23.710938 38.492188 23.613281 C 38.523438 23.828125 38.554688 24.042969 38.585938 24.265625 C 38.25 24.378906 37.9375 24.382812 37.589844 24.390625 C 37.492188 24.394531 37.492188 24.394531 37.394531 24.398438 C 36.917969 24.402344 36.65625 24.300781 36.28125 23.988281 C 35.820312 23.371094 35.765625 22.875 35.820312 22.121094 C 35.933594 21.640625 36.191406 21.316406 36.558594 21 C 37.03125 20.710938 37.605469 20.710938 38.113281 20.925781 Z M 36.742188 21.652344 C 36.683594 21.839844 36.621094 22.023438 36.558594 22.214844 C 37.074219 22.214844 37.589844 22.214844 38.125 22.214844 C 37.929688 21.574219 37.929688 21.574219 37.589844 21.410156 C 37.207031 21.363281 37.050781 21.425781 36.742188 21.652344 Z M 36.742188 21.652344 "/>
<path style=" stroke:none;fill-rule:nonzero;fill:rgb(19.215687%,19.215687%,19.215687%);fill-opacity:1;" d="M 47.078125 20.917969 C 47.558594 21.25 47.855469 21.636719 47.976562 22.214844 C 48.046875 22.898438 47.898438 23.367188 47.550781 23.964844 C 47.238281 24.265625 46.929688 24.386719 46.503906 24.453125 C 45.960938 24.425781 45.5 24.3125 45.121094 23.894531 C 44.773438 23.289062 44.652344 22.710938 44.792969 22.019531 C 44.949219 21.507812 45.234375 21.199219 45.675781 20.90625 C 46.152344 20.746094 46.605469 20.753906 47.078125 20.917969 Z M 45.777344 21.683594 C 45.445312 22.109375 45.441406 22.527344 45.492188 23.054688 C 45.636719 23.390625 45.804688 23.632812 46.136719 23.800781 C 46.503906 23.792969 46.707031 23.765625 47 23.53125 C 47.3125 23.113281 47.296875 22.625 47.242188 22.121094 C 47.121094 21.828125 46.972656 21.609375 46.6875 21.464844 C 46.277344 21.417969 46.105469 21.414062 45.777344 21.683594 Z M 45.777344 21.683594 "/>
<path style=" stroke:none;fill-rule:nonzero;fill:rgb(19.215687%,19.215687%,19.215687%);fill-opacity:1;" d="M 28.597656 20.925781 C 28.859375 21.121094 28.957031 21.265625 29.097656 21.558594 C 29.128906 21.863281 29.128906 21.863281 29.125 22.199219 C 29.125 22.316406 29.125 22.4375 29.125 22.5625 C 29.121094 22.691406 29.117188 22.816406 29.117188 22.941406 C 29.113281 23.070312 29.113281 23.199219 29.113281 23.328125 C 29.109375 23.640625 29.105469 23.953125 29.097656 24.265625 C 28.730469 24.390625 28.390625 24.378906 28.003906 24.382812 C 27.933594 24.386719 27.859375 24.386719 27.78125 24.390625 C 27.34375 24.390625 27.0625 24.367188 26.703125 24.078125 C 26.511719 23.859375 26.433594 23.707031 26.417969 23.410156 C 26.441406 23.058594 26.476562 22.832031 26.683594 22.546875 C 27.078125 22.269531 27.40625 22.191406 27.886719 22.203125 C 28.019531 22.203125 28.019531 22.203125 28.15625 22.207031 C 28.226562 22.207031 28.292969 22.210938 28.363281 22.214844 C 28.332031 21.9375 28.332031 21.9375 28.269531 21.652344 C 28.003906 21.519531 27.773438 21.550781 27.476562 21.554688 C 27.3125 21.554688 27.3125 21.554688 27.144531 21.558594 C 27.019531 21.558594 27.019531 21.558594 26.890625 21.558594 C 26.859375 21.34375 26.828125 21.128906 26.796875 20.90625 C 27.378906 20.730469 28.027344 20.730469 28.597656 20.925781 Z M 27.164062 23.054688 C 27.097656 23.285156 27.097656 23.285156 27.164062 23.519531 C 27.367188 23.71875 27.488281 23.792969 27.769531 23.828125 C 27.851562 23.824219 27.933594 23.820312 28.015625 23.816406 C 28.140625 23.8125 28.140625 23.8125 28.265625 23.808594 C 28.328125 23.804688 28.390625 23.804688 28.453125 23.800781 C 28.457031 23.644531 28.457031 23.492188 28.460938 23.339844 C 28.460938 23.253906 28.460938 23.167969 28.464844 23.078125 C 28.480469 22.871094 28.480469 22.871094 28.363281 22.773438 C 27.710938 22.726562 27.710938 22.726562 27.164062 23.054688 Z M 27.164062 23.054688 "/>
<path style=" stroke:none;fill-rule:nonzero;fill:rgb(19.607843%,19.607843%,19.607843%);fill-opacity:1;" d="M 23.296875 19.320312 C 23.265625 19.535156 23.238281 19.75 23.207031 19.972656 C 22.839844 19.972656 22.476562 19.972656 22.101562 19.972656 C 22.039062 20.28125 21.980469 20.589844 21.917969 20.90625 C 22.34375 20.90625 22.765625 20.90625 23.207031 20.90625 C 23.207031 21.089844 23.207031 21.277344 23.207031 21.464844 C 22.78125 21.464844 22.355469 21.464844 21.917969 21.464844 C 21.917969 22.421875 21.917969 23.375 21.917969 24.359375 C 21.703125 24.359375 21.492188 24.359375 21.273438 24.359375 C 21.265625 23.757812 21.261719 23.152344 21.257812 22.550781 C 21.253906 22.347656 21.253906 22.140625 21.25 21.9375 C 21.246094 21.640625 21.246094 21.347656 21.246094 21.050781 C 21.242188 20.914062 21.242188 20.914062 21.242188 20.773438 C 21.242188 20.308594 21.242188 19.976562 21.546875 19.601562 C 22.042969 19.164062 22.683594 19.113281 23.296875 19.320312 Z M 23.296875 19.320312 "/>
<path style=" stroke:none;fill-rule:nonzero;fill:rgb(19.215687%,19.215687%,19.215687%);fill-opacity:1;" d="M 25.164062 20.789062 C 25.238281 20.789062 25.3125 20.789062 25.386719 20.789062 C 25.617188 20.816406 25.769531 20.882812 25.96875 21 C 25.9375 21.183594 25.90625 21.371094 25.875 21.558594 C 25.480469 21.527344 25.085938 21.5 24.679688 21.464844 C 24.679688 22.421875 24.679688 23.375 24.679688 24.359375 C 24.4375 24.359375 24.191406 24.359375 23.941406 24.359375 C 23.941406 23.25 23.941406 22.140625 23.941406 21 C 24.78125 20.789062 24.78125 20.789062 25.164062 20.789062 Z M 25.164062 20.789062 "/>
<path style=" stroke:none;fill-rule:nonzero;fill:rgb(19.607843%,19.607843%,19.607843%);fill-opacity:1;" d="M 50.214844 20.796875 C 50.328125 20.796875 50.328125 20.796875 50.445312 20.796875 C 50.648438 20.8125 50.648438 20.8125 50.921875 20.90625 C 50.894531 21.121094 50.863281 21.335938 50.832031 21.558594 C 50.4375 21.527344 50.042969 21.5 49.632812 21.464844 C 49.632812 22.421875 49.632812 23.375 49.632812 24.359375 C 49.421875 24.359375 49.210938 24.359375 48.988281 24.359375 C 48.988281 23.25 48.988281 22.140625 48.988281 21 C 49.824219 20.789062 49.824219 20.789062 50.214844 20.796875 Z M 50.214844 20.796875 "/>
<path style=" stroke:none;fill-rule:nonzero;fill:rgb(18.431373%,18.431373%,18.431373%);fill-opacity:1;" d="M 36.0625 26.027344 C 36.21875 26.035156 36.21875 26.035156 36.375 26.039062 C 36.378906 26.207031 36.382812 26.375 36.386719 26.542969 C 36.386719 26.636719 36.390625 26.726562 36.390625 26.824219 C 36.375 27.066406 36.375 27.066406 36.191406 27.253906 C 35.855469 27.265625 35.855469 27.265625 35.546875 27.253906 C 35.574219 27.160156 35.605469 27.070312 35.636719 26.972656 C 35.699219 26.972656 35.757812 26.972656 35.820312 26.972656 C 35.730469 26.910156 35.640625 26.851562 35.546875 26.785156 C 35.515625 26.507812 35.515625 26.507812 35.546875 26.226562 C 35.730469 26.039062 35.730469 26.039062 36.0625 26.027344 Z M 35.914062 26.226562 C 35.882812 26.378906 35.851562 26.535156 35.820312 26.691406 C 35.914062 26.691406 36.003906 26.691406 36.097656 26.691406 C 36.097656 26.539062 36.097656 26.386719 36.097656 26.226562 C 36.035156 26.226562 35.976562 26.226562 35.914062 26.226562 Z M 35.914062 26.226562 "/>
<path style=" stroke:none;fill-rule:nonzero;fill:rgb(18.431373%,18.431373%,18.431373%);fill-opacity:1;" d="M 29.25 26.027344 C 29.402344 26.035156 29.402344 26.035156 29.558594 26.039062 C 29.566406 26.191406 29.566406 26.339844 29.570312 26.488281 C 29.574219 26.574219 29.574219 26.65625 29.578125 26.742188 C 29.558594 26.972656 29.558594 26.972656 29.375 27.253906 C 29.042969 27.269531 29.042969 27.269531 28.730469 27.253906 C 28.757812 27.164062 28.757812 27.164062 28.78125 27.074219 C 28.796875 27.007812 28.808594 26.945312 28.824219 26.878906 C 28.792969 26.847656 28.761719 26.820312 28.730469 26.785156 C 28.714844 26.511719 28.714844 26.511719 28.730469 26.226562 C 28.914062 26.039062 28.914062 26.039062 29.25 26.027344 Z M 29.097656 26.226562 C 29.007812 26.367188 29.007812 26.367188 28.914062 26.507812 C 28.945312 26.566406 28.976562 26.628906 29.007812 26.691406 C 29.097656 26.691406 29.191406 26.691406 29.285156 26.691406 C 29.285156 26.539062 29.285156 26.386719 29.285156 26.226562 C 29.222656 26.226562 29.160156 26.226562 29.097656 26.226562 Z M 29.097656 26.226562 "/>
<path style=" stroke:none;fill-rule:nonzero;fill:rgb(18.039216%,18.039216%,18.039216%);fill-opacity:1;" d="M 37.386719 25.574219 C 37.386719 25.726562 37.386719 25.882812 37.386719 26.039062 C 37.460938 26.039062 37.535156 26.035156 37.613281 26.035156 C 37.847656 26.039062 37.847656 26.039062 37.941406 26.132812 C 37.953125 26.300781 37.953125 26.300781 37.949219 26.507812 C 37.953125 26.574219 37.953125 26.640625 37.953125 26.710938 C 37.941406 26.878906 37.941406 26.878906 37.847656 26.972656 C 37.601562 26.988281 37.355469 26.976562 37.109375 26.972656 C 37.109375 26.542969 37.109375 26.109375 37.109375 25.667969 C 37.296875 25.574219 37.296875 25.574219 37.386719 25.574219 Z M 37.480469 26.226562 C 37.359375 26.328125 37.359375 26.328125 37.382812 26.558594 C 37.382812 26.632812 37.386719 26.710938 37.386719 26.785156 C 37.507812 26.726562 37.628906 26.664062 37.753906 26.601562 C 37.726562 26.476562 37.695312 26.355469 37.664062 26.226562 C 37.601562 26.226562 37.542969 26.226562 37.480469 26.226562 Z M 37.480469 26.226562 "/>
<path style=" stroke:none;fill-rule:nonzero;fill:rgb(16.862746%,16.862746%,16.862746%);fill-opacity:1;" d="M 22.554688 26.015625 C 22.648438 26.023438 22.742188 26.03125 22.835938 26.039062 C 23.023438 26.320312 23.023438 26.320312 23.023438 26.601562 C 22.929688 26.628906 22.839844 26.660156 22.746094 26.691406 C 22.804688 26.691406 22.867188 26.691406 22.929688 26.691406 C 22.929688 26.785156 22.929688 26.878906 22.929688 26.972656 C 22.714844 26.976562 22.5 26.976562 22.285156 26.972656 C 22.191406 26.878906 22.191406 26.878906 22.179688 26.710938 C 22.179688 26.644531 22.179688 26.574219 22.179688 26.507812 C 22.179688 26.4375 22.179688 26.371094 22.179688 26.300781 C 22.203125 26.015625 22.265625 26.042969 22.554688 26.015625 Z M 22.46875 26.226562 C 22.46875 26.289062 22.46875 26.351562 22.46875 26.414062 C 22.558594 26.382812 22.652344 26.351562 22.746094 26.320312 C 22.652344 26.289062 22.5625 26.257812 22.46875 26.226562 Z M 22.46875 26.226562 "/>
<path style=" stroke:none;fill-rule:nonzero;fill:rgb(17.254902%,17.254902%,17.254902%);fill-opacity:1;" d="M 39.132812 26.015625 C 39.222656 26.023438 39.316406 26.03125 39.414062 26.039062 C 39.597656 26.320312 39.597656 26.320312 39.597656 26.601562 C 39.445312 26.628906 39.292969 26.660156 39.136719 26.691406 C 39.257812 26.691406 39.378906 26.691406 39.503906 26.691406 C 39.503906 26.785156 39.503906 26.878906 39.503906 26.972656 C 39.289062 26.976562 39.074219 26.976562 38.859375 26.972656 C 38.769531 26.878906 38.769531 26.878906 38.757812 26.710938 C 38.757812 26.644531 38.757812 26.574219 38.757812 26.507812 C 38.757812 26.4375 38.757812 26.371094 38.757812 26.300781 C 38.777344 26.015625 38.84375 26.042969 39.132812 26.015625 Z M 39.042969 26.226562 C 39.042969 26.289062 39.042969 26.351562 39.042969 26.414062 C 39.136719 26.382812 39.226562 26.351562 39.320312 26.320312 C 39.230469 26.289062 39.136719 26.257812 39.042969 26.226562 Z M 39.042969 26.226562 "/>
<path style=" stroke:none;fill-rule:nonzero;fill:rgb(18.82353%,18.82353%,18.82353%);fill-opacity:1;" d="M 44.488281 26.027344 C 44.578125 26.03125 44.664062 26.035156 44.753906 26.039062 C 44.785156 26.226562 44.816406 26.410156 44.847656 26.601562 C 44.695312 26.628906 44.542969 26.660156 44.386719 26.691406 C 44.507812 26.691406 44.628906 26.691406 44.753906 26.691406 C 44.753906 26.785156 44.753906 26.878906 44.753906 26.972656 C 44.488281 26.984375 44.488281 26.984375 44.203125 26.972656 C 44.015625 26.785156 44.015625 26.785156 43.996094 26.507812 C 44.027344 26.113281 44.101562 26.042969 44.488281 26.027344 Z M 44.386719 26.226562 C 44.355469 26.289062 44.324219 26.351562 44.292969 26.414062 C 44.382812 26.382812 44.476562 26.351562 44.570312 26.320312 C 44.507812 26.289062 44.449219 26.257812 44.386719 26.226562 Z M 44.386719 26.226562 "/>
<path style=" stroke:none;fill-rule:nonzero;fill:rgb(18.82353%,18.82353%,18.82353%);fill-opacity:1;" d="M 31.261719 26.015625 C 31.492188 26.039062 31.492188 26.039062 31.675781 26.226562 C 31.675781 26.351562 31.675781 26.472656 31.675781 26.601562 C 31.527344 26.628906 31.375 26.660156 31.21875 26.691406 C 31.339844 26.691406 31.460938 26.691406 31.585938 26.691406 C 31.585938 26.785156 31.585938 26.878906 31.585938 26.972656 C 31.320312 26.984375 31.320312 26.984375 31.03125 26.972656 C 30.847656 26.785156 30.847656 26.785156 30.824219 26.507812 C 30.855469 26.15625 30.910156 26.050781 31.261719 26.015625 Z M 31.21875 26.226562 C 31.1875 26.289062 31.15625 26.351562 31.125 26.414062 C 31.214844 26.382812 31.308594 26.351562 31.402344 26.320312 C 31.339844 26.289062 31.28125 26.257812 31.21875 26.226562 Z M 31.21875 26.226562 "/>
<path style=" stroke:none;fill-rule:nonzero;fill:rgb(17.254902%,17.254902%,17.254902%);fill-opacity:1;" d="M 26.246094 26.027344 C 26.519531 26.039062 26.519531 26.039062 26.613281 26.132812 C 26.617188 26.289062 26.617188 26.445312 26.613281 26.601562 C 26.523438 26.644531 26.523438 26.644531 26.429688 26.691406 C 26.488281 26.691406 26.550781 26.691406 26.613281 26.691406 C 26.613281 26.785156 26.613281 26.878906 26.613281 26.972656 C 26.398438 26.976562 26.183594 26.976562 25.96875 26.972656 C 25.875 26.878906 25.875 26.878906 25.863281 26.710938 C 25.863281 26.644531 25.863281 26.574219 25.863281 26.507812 C 25.863281 26.4375 25.863281 26.371094 25.863281 26.300781 C 25.886719 26.011719 25.949219 26.039062 26.246094 26.027344 Z M 26.152344 26.226562 C 26.152344 26.289062 26.152344 26.351562 26.152344 26.414062 C 26.242188 26.382812 26.335938 26.351562 26.429688 26.320312 C 26.335938 26.289062 26.246094 26.257812 26.152344 26.226562 Z M 26.152344 26.226562 "/>
<path style=" stroke:none;fill-rule:nonzero;fill:rgb(19.215687%,19.215687%,19.215687%);fill-opacity:1;" d="M 41.714844 26.039062 C 42.027344 26.023438 42.027344 26.023438 42.359375 26.039062 C 42.582031 26.378906 42.558594 26.574219 42.542969 26.972656 C 42.453125 26.972656 42.363281 26.972656 42.269531 26.972656 C 42.257812 26.867188 42.246094 26.761719 42.234375 26.652344 C 42.214844 26.542969 42.195312 26.433594 42.175781 26.320312 C 42.113281 26.289062 42.054688 26.257812 41.992188 26.226562 C 41.992188 26.472656 41.992188 26.71875 41.992188 26.972656 C 41.898438 26.972656 41.808594 26.972656 41.714844 26.972656 C 41.714844 26.664062 41.714844 26.355469 41.714844 26.039062 Z M 41.714844 26.039062 "/>
<path style=" stroke:none;fill-rule:nonzero;fill:rgb(19.215687%,19.215687%,19.215687%);fill-opacity:1;" d="M 33.613281 26.039062 C 33.796875 26.035156 33.980469 26.035156 34.164062 26.039062 C 34.257812 26.132812 34.257812 26.132812 34.265625 26.328125 C 34.265625 26.402344 34.261719 26.480469 34.261719 26.558594 C 34.261719 26.636719 34.261719 26.714844 34.257812 26.792969 C 34.257812 26.851562 34.257812 26.910156 34.257812 26.972656 C 34.042969 26.972656 33.832031 26.972656 33.613281 26.972656 C 33.582031 26.820312 33.550781 26.664062 33.519531 26.507812 C 33.640625 26.445312 33.761719 26.382812 33.886719 26.320312 C 33.796875 26.289062 33.707031 26.257812 33.613281 26.226562 C 33.613281 26.164062 33.613281 26.101562 33.613281 26.039062 Z M 33.796875 26.601562 C 33.796875 26.660156 33.796875 26.722656 33.796875 26.785156 C 33.855469 26.785156 33.917969 26.785156 33.980469 26.785156 C 33.980469 26.726562 33.980469 26.664062 33.980469 26.601562 C 33.917969 26.601562 33.859375 26.601562 33.796875 26.601562 Z M 33.796875 26.601562 "/>
<path style=" stroke:none;fill-rule:nonzero;fill:rgb(19.215687%,19.215687%,19.215687%);fill-opacity:1;" d="M 27.808594 26.039062 C 27.996094 26.035156 28.179688 26.035156 28.363281 26.039062 C 28.453125 26.132812 28.453125 26.132812 28.464844 26.328125 C 28.460938 26.402344 28.460938 26.480469 28.460938 26.558594 C 28.460938 26.636719 28.457031 26.714844 28.457031 26.792969 C 28.457031 26.851562 28.457031 26.910156 28.453125 26.972656 C 28.242188 26.972656 28.027344 26.972656 27.808594 26.972656 C 27.78125 26.820312 27.75 26.664062 27.71875 26.507812 C 27.839844 26.445312 27.960938 26.382812 28.085938 26.320312 C 27.996094 26.289062 27.902344 26.257812 27.808594 26.226562 C 27.808594 26.164062 27.808594 26.101562 27.808594 26.039062 Z M 27.996094 26.601562 C 27.996094 26.660156 27.996094 26.722656 27.996094 26.785156 C 28.085938 26.785156 28.175781 26.785156 28.269531 26.785156 C 28.269531 26.726562 28.269531 26.664062 28.269531 26.601562 C 28.179688 26.601562 28.089844 26.601562 27.996094 26.601562 Z M 27.996094 26.601562 "/>
<path style=" stroke:none;fill-rule:nonzero;fill:rgb(19.215687%,19.215687%,19.215687%);fill-opacity:1;" d="M 34.53125 26.039062 C 34.746094 26.035156 34.960938 26.035156 35.175781 26.039062 C 35.269531 26.132812 35.269531 26.132812 35.277344 26.328125 C 35.277344 26.402344 35.277344 26.480469 35.273438 26.558594 C 35.273438 26.636719 35.273438 26.714844 35.273438 26.792969 C 35.269531 26.851562 35.269531 26.910156 35.269531 26.972656 C 35.207031 26.972656 35.148438 26.972656 35.085938 26.972656 C 35.074219 26.867188 35.0625 26.761719 35.050781 26.652344 C 35.03125 26.542969 35.011719 26.433594 34.992188 26.320312 C 34.933594 26.289062 34.871094 26.257812 34.808594 26.226562 C 34.808594 26.472656 34.808594 26.71875 34.808594 26.972656 C 34.71875 26.972656 34.625 26.972656 34.53125 26.972656 C 34.53125 26.664062 34.53125 26.355469 34.53125 26.039062 Z M 34.53125 26.039062 "/>
<path style=" stroke:none;fill-rule:nonzero;fill:rgb(19.607843%,19.607843%,19.607843%);fill-opacity:1;" d="M 24.125 26.039062 C 24.1875 26.039062 24.25 26.039062 24.3125 26.039062 C 24.328125 26.199219 24.328125 26.199219 24.34375 26.359375 C 24.375 26.527344 24.375 26.527344 24.402344 26.691406 C 24.464844 26.722656 24.523438 26.753906 24.585938 26.785156 C 24.585938 26.539062 24.585938 26.292969 24.585938 26.039062 C 24.679688 26.039062 24.769531 26.039062 24.863281 26.039062 C 24.863281 26.347656 24.863281 26.65625 24.863281 26.972656 C 24.648438 26.976562 24.433594 26.976562 24.21875 26.972656 C 24.125 26.878906 24.125 26.878906 24.117188 26.6875 C 24.117188 26.609375 24.121094 26.535156 24.121094 26.453125 C 24.121094 26.378906 24.121094 26.300781 24.125 26.21875 C 24.125 26.160156 24.125 26.101562 24.125 26.039062 Z M 24.125 26.039062 "/>
<path style=" stroke:none;fill-rule:nonzero;fill:rgb(18.039216%,18.039216%,18.039216%);fill-opacity:1;" d="M 43.28125 25.761719 C 43.371094 25.761719 43.464844 25.761719 43.558594 25.761719 C 43.558594 25.851562 43.558594 25.945312 43.558594 26.039062 C 43.648438 26.039062 43.738281 26.039062 43.832031 26.039062 C 43.832031 26.101562 43.832031 26.164062 43.832031 26.226562 C 43.742188 26.226562 43.652344 26.226562 43.558594 26.226562 C 43.558594 26.410156 43.558594 26.597656 43.558594 26.785156 C 43.648438 26.757812 43.738281 26.726562 43.832031 26.691406 C 43.863281 26.785156 43.894531 26.878906 43.925781 26.972656 C 43.742188 26.976562 43.558594 26.976562 43.371094 26.972656 C 43.28125 26.878906 43.28125 26.878906 43.273438 26.625 C 43.273438 26.523438 43.273438 26.421875 43.273438 26.3125 C 43.277344 26.210938 43.277344 26.109375 43.277344 26 C 43.277344 25.921875 43.28125 25.84375 43.28125 25.761719 Z M 43.28125 25.761719 "/>
<path style=" stroke:none;fill-rule:nonzero;fill:rgb(18.039216%,18.039216%,18.039216%);fill-opacity:1;" d="M 21.363281 26.039062 C 21.546875 26.039062 21.730469 26.039062 21.917969 26.039062 C 21.917969 26.101562 21.917969 26.164062 21.917969 26.226562 C 21.824219 26.257812 21.734375 26.289062 21.640625 26.320312 C 21.761719 26.414062 21.882812 26.503906 22.007812 26.601562 C 21.976562 26.722656 21.949219 26.847656 21.917969 26.972656 C 21.703125 26.972656 21.492188 26.972656 21.273438 26.972656 C 21.300781 26.882812 21.332031 26.789062 21.363281 26.691406 C 21.457031 26.691406 21.546875 26.691406 21.640625 26.691406 C 21.519531 26.601562 21.398438 26.507812 21.273438 26.414062 C 21.300781 26.289062 21.332031 26.167969 21.363281 26.039062 Z M 21.363281 26.039062 "/>
<path style=" stroke:none;fill-rule:nonzero;fill:rgb(18.82353%,18.82353%,18.82353%);fill-opacity:1;" d="M 32.78125 25.761719 C 32.875 25.761719 32.964844 25.761719 33.058594 25.761719 C 33.058594 25.851562 33.058594 25.945312 33.058594 26.039062 C 33.148438 26.039062 33.242188 26.039062 33.335938 26.039062 C 33.335938 26.101562 33.335938 26.164062 33.335938 26.226562 C 33.242188 26.226562 33.152344 26.226562 33.058594 26.226562 C 33.058594 26.410156 33.058594 26.597656 33.058594 26.785156 C 33.148438 26.757812 33.242188 26.726562 33.335938 26.691406 C 33.335938 26.785156 33.335938 26.878906 33.335938 26.972656 C 33.183594 26.976562 33.027344 26.976562 32.875 26.972656 C 32.78125 26.878906 32.78125 26.878906 32.773438 26.625 C 32.773438 26.523438 32.777344 26.421875 32.777344 26.3125 C 32.777344 26.210938 32.777344 26.109375 32.78125 26 C 32.78125 25.921875 32.78125 25.84375 32.78125 25.761719 Z M 32.78125 25.761719 "/>
<path style=" stroke:none;fill-rule:nonzero;fill:rgb(19.607843%,19.607843%,19.607843%);fill-opacity:1;" d="M 40.703125 26.039062 C 40.761719 26.039062 40.824219 26.039062 40.886719 26.039062 C 40.917969 26.285156 40.945312 26.53125 40.976562 26.785156 C 41.070312 26.785156 41.160156 26.785156 41.253906 26.785156 C 41.253906 26.539062 41.253906 26.292969 41.253906 26.039062 C 41.316406 26.039062 41.375 26.039062 41.4375 26.039062 C 41.4375 26.347656 41.4375 26.65625 41.4375 26.972656 C 41.222656 26.976562 41.007812 26.976562 40.792969 26.972656 C 40.703125 26.878906 40.703125 26.878906 40.691406 26.6875 C 40.695312 26.609375 40.695312 26.535156 40.695312 26.453125 C 40.695312 26.378906 40.699219 26.300781 40.699219 26.21875 C 40.699219 26.160156 40.699219 26.101562 40.703125 26.039062 Z M 40.703125 26.039062 "/>
<path style=" stroke:none;fill-rule:nonzero;fill:rgb(18.431373%,18.431373%,18.431373%);fill-opacity:1;" d="M 38.308594 25.574219 C 38.367188 25.574219 38.429688 25.574219 38.492188 25.574219 C 38.523438 26.035156 38.554688 26.496094 38.585938 26.972656 C 38.460938 26.941406 38.339844 26.910156 38.214844 26.878906 C 38.214844 26.679688 38.210938 26.480469 38.210938 26.277344 C 38.210938 26.167969 38.207031 26.054688 38.207031 25.941406 C 38.214844 25.667969 38.214844 25.667969 38.308594 25.574219 Z M 38.308594 25.574219 "/>
<path style=" stroke:none;fill-rule:nonzero;fill:rgb(18.82353%,18.82353%,18.82353%);fill-opacity:1;" d="M 30.574219 25.574219 C 30.601562 26.035156 30.632812 26.496094 30.664062 26.972656 C 30.542969 26.941406 30.421875 26.910156 30.296875 26.878906 C 30.296875 26.480469 30.296875 26.078125 30.296875 25.667969 C 30.480469 25.574219 30.480469 25.574219 30.574219 25.574219 Z M 30.574219 25.574219 "/>
<path style=" stroke:none;fill-rule:nonzero;fill:rgb(18.039216%,18.039216%,18.039216%);fill-opacity:1;" d="M 23.632812 26.027344 C 23.703125 26.03125 23.777344 26.035156 23.851562 26.039062 C 23.851562 26.101562 23.851562 26.164062 23.851562 26.226562 C 23.667969 26.320312 23.667969 26.320312 23.480469 26.414062 C 23.511719 26.503906 23.542969 26.597656 23.574219 26.691406 C 23.757812 26.761719 23.757812 26.761719 23.941406 26.785156 C 23.941406 26.847656 23.941406 26.910156 23.941406 26.972656 C 23.675781 26.984375 23.675781 26.984375 23.390625 26.972656 C 23.207031 26.785156 23.207031 26.785156 23.183594 26.507812 C 23.210938 26.148438 23.269531 26.046875 23.632812 26.027344 Z M 23.632812 26.027344 "/>
<path style=" stroke:none;fill-rule:nonzero;fill:rgb(19.607843%,19.607843%,19.607843%);fill-opacity:1;" d="M 25.140625 26.039062 C 25.320312 26.039062 25.503906 26.039062 25.691406 26.039062 C 25.691406 26.101562 25.691406 26.164062 25.691406 26.226562 C 25.601562 26.226562 25.507812 26.226562 25.414062 26.226562 C 25.414062 26.472656 25.414062 26.71875 25.414062 26.972656 C 25.324219 26.972656 25.234375 26.972656 25.140625 26.972656 C 25.140625 26.664062 25.140625 26.355469 25.140625 26.039062 Z M 25.140625 26.039062 "/>
<path style=" stroke:none;fill-rule:nonzero;fill:rgb(19.607843%,19.607843%,19.607843%);fill-opacity:1;" d="M 42.820312 26.039062 C 42.882812 26.039062 42.941406 26.039062 43.003906 26.039062 C 43.003906 26.347656 43.003906 26.65625 43.003906 26.972656 C 42.945312 26.972656 42.882812 26.972656 42.820312 26.972656 C 42.820312 26.664062 42.820312 26.355469 42.820312 26.039062 Z M 42.820312 26.039062 "/>
<path style=" stroke:none;fill-rule:nonzero;fill:rgb(19.607843%,19.607843%,19.607843%);fill-opacity:1;" d="M 36.648438 26.039062 C 36.710938 26.039062 36.773438 26.039062 36.835938 26.039062 C 36.835938 26.347656 36.835938 26.65625 36.835938 26.972656 C 36.773438 26.972656 36.714844 26.972656 36.648438 26.972656 C 36.648438 26.664062 36.648438 26.355469 36.648438 26.039062 Z M 36.648438 26.039062 "/>
<path style=" stroke:none;fill-rule:nonzero;fill:rgb(19.607843%,19.607843%,19.607843%);fill-opacity:1;" d="M 29.835938 26.039062 C 29.898438 26.039062 29.957031 26.039062 30.019531 26.039062 C 30.019531 26.347656 30.019531 26.65625 30.019531 26.972656 C 29.960938 26.972656 29.898438 26.972656 29.835938 26.972656 C 29.835938 26.664062 29.835938 26.355469 29.835938 26.039062 Z M 29.835938 26.039062 "/>
<path style=" stroke:none;fill-rule:nonzero;fill:rgb(16.470589%,16.470589%,16.470589%);fill-opacity:1;" d="M 31.863281 26.691406 C 31.953125 26.691406 32.042969 26.691406 32.136719 26.691406 C 32.136719 26.847656 32.136719 27 32.136719 27.160156 C 32.046875 27.191406 31.957031 27.222656 31.863281 27.253906 C 31.863281 27.070312 31.863281 26.882812 31.863281 26.691406 Z M 31.863281 26.691406 "/>
<path style=" stroke:none;fill-rule:nonzero;fill:rgb(18.039216%,18.039216%,18.039216%);fill-opacity:1;" d="M 26.890625 26.691406 C 26.980469 26.691406 27.070312 26.691406 27.164062 26.691406 C 27.136719 26.878906 27.105469 27.0625 27.074219 27.253906 C 26.980469 27.222656 26.890625 27.191406 26.796875 27.160156 C 26.828125 27.007812 26.859375 26.851562 26.890625 26.691406 Z M 26.890625 26.691406 "/>
<path style=" stroke:none;fill-rule:nonzero;fill:rgb(19.215687%,19.215687%,19.215687%);fill-opacity:1;" d="M 39.78125 26.691406 C 39.871094 26.691406 39.964844 26.691406 40.058594 26.691406 C 40.027344 26.878906 39.996094 27.0625 39.964844 27.253906 C 39.90625 27.253906 39.84375 27.253906 39.78125 27.253906 C 39.78125 27.070312 39.78125 26.882812 39.78125 26.691406 Z M 39.78125 26.691406 "/>
<path style=" stroke:none;fill-rule:nonzero;fill:rgb(14.117648%,14.117648%,14.117648%);fill-opacity:1;" d="M 36.648438 25.667969 C 36.742188 25.699219 36.832031 25.726562 36.925781 25.761719 C 36.925781 25.820312 36.925781 25.882812 36.925781 25.945312 C 36.804688 25.914062 36.683594 25.886719 36.558594 25.851562 C 36.589844 25.792969 36.617188 25.730469 36.648438 25.667969 Z M 36.648438 25.667969 "/>
<path style=" stroke:none;fill-rule:nonzero;fill:rgb(16.862746%,16.862746%,16.862746%);fill-opacity:1;" d="M 42.820312 25.667969 C 42.882812 25.667969 42.941406 25.667969 43.003906 25.667969 C 43.003906 25.757812 43.003906 25.851562 43.003906 25.945312 C 42.914062 25.945312 42.820312 25.945312 42.726562 25.945312 C 42.757812 25.855469 42.789062 25.761719 42.820312 25.667969 Z M 42.820312 25.667969 "/>
<path style=" stroke:none;fill-rule:nonzero;fill:rgb(16.470589%,16.470589%,16.470589%);fill-opacity:1;" d="M 29.835938 25.667969 C 29.898438 25.667969 29.957031 25.667969 30.019531 25.667969 C 30.019531 25.757812 30.019531 25.851562 30.019531 25.945312 C 29.929688 25.945312 29.835938 25.945312 29.742188 25.945312 C 29.773438 25.855469 29.804688 25.761719 29.835938 25.667969 Z M 29.835938 25.667969 "/>
</g>
</svg>
