<?xml version="1.0" encoding="UTF-8"?>
<svg xmlns="http://www.w3.org/2000/svg" xmlns:xlink="http://www.w3.org/1999/xlink" width="66px" height="px" viewBox="0 0 66 99" version="1.1">
<g id="surface1">
<path style=" stroke:none;fill-rule:nonzero;fill:rgb(72.549021%,0%,11.764706%);fill-opacity:1;" d="M 55.515625 0.226562 C 57.179688 1.113281 58.390625 2.460938 59.109375 4.191406 C 59.445312 5.445312 59.488281 6.613281 59.480469 7.898438 C 59.480469 8.15625 59.480469 8.414062 59.480469 8.679688 C 59.480469 9.539062 59.480469 10.398438 59.476562 11.261719 C 59.476562 11.878906 59.476562 12.496094 59.476562 13.113281 C 59.476562 14.789062 59.472656 16.464844 59.46875 18.140625 C 59.460938 19.894531 59.460938 21.644531 59.460938 23.398438 C 59.460938 26.714844 59.453125 30.03125 59.449219 33.347656 C 59.441406 37.125 59.4375 40.902344 59.433594 44.675781 C 59.425781 52.445312 59.414062 60.210938 59.398438 67.980469 C 58.507812 67.535156 58.4375 67.070312 58.039062 66.164062 C 55.644531 61.289062 51.054688 59.164062 46.507812 56.59375 C 45.6875 56.128906 44.867188 55.660156 44.042969 55.191406 C 43.734375 55.015625 43.734375 55.015625 43.417969 54.835938 C 41.367188 53.671875 39.328125 52.496094 37.289062 51.316406 C 34.339844 49.609375 31.382812 47.910156 28.421875 46.21875 C 28.132812 46.058594 28.132812 46.058594 27.839844 45.890625 C 25.890625 44.777344 23.941406 43.664062 21.992188 42.550781 C 16.84375 39.617188 11.703125 36.667969 6.601562 33.660156 C 6.308594 33.492188 6.015625 33.324219 5.714844 33.148438 C 4.722656 32.527344 4.402344 32.113281 3.960938 31.019531 C 3.652344 28.785156 3.898438 27.566406 5.28125 25.738281 C 6.132812 25.113281 6.132812 25.113281 7.105469 24.578125 C 7.46875 24.371094 7.835938 24.167969 8.210938 23.957031 C 8.609375 23.738281 9.007812 23.523438 9.40625 23.304688 C 9.820312 23.074219 10.234375 22.84375 10.648438 22.613281 C 11.507812 22.132812 12.371094 21.652344 13.234375 21.175781 C 15.035156 20.175781 16.820312 19.152344 18.609375 18.128906 C 19.183594 17.796875 19.761719 17.46875 20.339844 17.136719 C 23.265625 15.464844 26.1875 13.78125 29.109375 12.09375 C 31.925781 10.464844 34.753906 8.851562 37.582031 7.238281 C 39.6875 6.039062 41.792969 4.828125 43.890625 3.601562 C 44.253906 3.386719 44.617188 3.171875 44.996094 2.953125 C 45.6875 2.546875 46.378906 2.140625 47.066406 1.734375 C 47.375 1.554688 47.679688 1.371094 47.996094 1.1875 C 48.261719 1.027344 48.53125 0.871094 48.808594 0.707031 C 50.75 -0.351562 53.414062 -0.417969 55.515625 0.226562 Z M 55.515625 0.226562 "/>
<path style=" stroke:none;fill-rule:nonzero;fill:rgb(37.254903%,37.254903%,38.039216%);fill-opacity:1;" d="M 15.179688 45.210938 C 16.46875 45.628906 17.597656 46.066406 18.761719 46.757812 C 19.214844 47.027344 19.214844 47.027344 19.679688 47.300781 C 20.167969 47.59375 20.167969 47.59375 20.667969 47.890625 C 21.378906 48.3125 22.09375 48.734375 22.808594 49.15625 C 23.179688 49.375 23.554688 49.59375 23.9375 49.820312 C 25.820312 50.925781 27.71875 52.007812 29.617188 53.089844 C 30.003906 53.308594 30.394531 53.53125 30.78125 53.753906 C 32.5625 54.769531 34.34375 55.785156 36.125 56.796875 C 39.875 58.929688 43.621094 61.0625 47.335938 63.257812 C 47.601562 63.410156 47.867188 63.566406 48.140625 63.726562 C 50.808594 65.320312 53.261719 67.527344 54.121094 70.621094 C 54.6875 73.609375 54.578125 76.476562 53.128906 79.199219 C 51.238281 81.75 49.140625 83.28125 46.34375 84.726562 C 45.605469 85.125 44.871094 85.523438 44.132812 85.921875 C 43.761719 86.121094 43.390625 86.320312 43.007812 86.523438 C 41.320312 87.441406 39.664062 88.414062 38.011719 89.390625 C 34.664062 91.355469 31.296875 93.285156 27.921875 95.203125 C 27.558594 95.410156 27.191406 95.621094 26.816406 95.835938 C 26.289062 96.132812 26.289062 96.132812 25.753906 96.4375 C 24.804688 96.988281 23.878906 97.566406 22.949219 98.152344 C 21.195312 99.210938 19.828125 99.324219 17.820312 99 C 16.394531 98.433594 15.855469 97.714844 15.179688 96.359375 C 15.058594 95.359375 15.058594 95.359375 15.0625 94.21875 C 15.058594 93.570312 15.058594 93.570312 15.058594 92.910156 C 15.058594 92.429688 15.0625 91.953125 15.066406 91.476562 C 15.066406 90.972656 15.066406 90.46875 15.066406 89.964844 C 15.066406 88.597656 15.074219 87.230469 15.078125 85.863281 C 15.085938 84.433594 15.085938 83.003906 15.085938 81.578125 C 15.089844 78.871094 15.097656 76.164062 15.109375 73.460938 C 15.121094 70.378906 15.125 67.300781 15.128906 64.21875 C 15.140625 57.882812 15.15625 51.546875 15.179688 45.210938 Z M 15.179688 45.210938 "/>
</g>
</svg>
